<?xml version="1.0" encoding="utf-8"?>
<!-- Generator: Adobe Illustrator 18.0.0, SVG Export Plug-In . SVG Version: 6.00 Build 0)  -->
<!DOCTYPE svg PUBLIC "-//W3C//DTD SVG 1.1//EN" "http://www.w3.org/Graphics/SVG/1.1/DTD/svg11.dtd">
<svg version="1.1" id="圖層_1" xmlns="http://www.w3.org/2000/svg" xmlns:xlink="http://www.w3.org/1999/xlink" x="0px" y="0px"
	 viewBox="0 0 226.2 165.5" enable-background="new 0 0 226.2 165.5" xml:space="preserve">
<path fill="#F7F9F9" d="M204.5,61.1c-9.6,0-17.8,6.3-20.6,14.9h-20.4V60.1c0-0.2,0-0.3,0-0.6c0-0.4-0.1-3.6,1.7-5.5
	c1.2-1.3,3.3-1.9,6.3-1.9c3.8,0,6.8-3,6.8-6.8c0-3.8-3-6.8-6.8-6.8c-8.7,0-13.7,3.5-16.4,6.4c-5.4,5.9-5.3,13.5-5.2,15.4V76h-27.9
	V60.1c0-0.2,0-0.3,0-0.6c0-0.4-0.1-3.6,1.7-5.5c1.2-1.3,3.3-1.9,6.3-1.9c3.8,0,6.8-3,6.8-6.8c0-3.8-3-6.8-6.8-6.8
	c-8.7,0-13.7,3.5-16.4,6.4c-5.4,5.9-5.3,13.5-5.2,15.4V76H92.7c-2.9-8.7-11-14.9-20.6-14.9c-9.6,0-17.8,6.3-20.6,14.9H25.3V20.4
	c0-0.2,0-0.5,0-0.7c0,0-0.1-2.9,1.3-4.4c1-1.1,2.8-1.7,5.5-1.7c3.8,0,6.8-3,6.8-6.8S35.8,0,32.1,0c-8.3,0-13,3.3-15.6,6.1
	c-5,5.5-4.9,12.6-4.8,14.5v62.2c0,0.2,0,0.5,0,0.7l0-0.1c0,0.7-0.1,2.3-0.9,3.2c-0.9,0.9-2.9,1.1-4,1.1c-3.8,0-6.8,3-6.8,6.8
	c0,3.8,3,6.8,6.8,6.8c7.5,0,11.9-3.1,14.2-5.6c1.7-1.9,2.8-4,3.4-6h27c2.9,8.7,11,14.9,20.6,14.9c9.6,0,17.8-6.3,20.6-14.9h15.6
	v54.1c0,0.2,0,0.4,0,0.6c0,0,0.1,3.5-1.8,5.6c-1.3,1.4-3.5,2.1-6.5,2.1c-3.8,0-6.8,3-6.8,6.8s3,6.8,6.8,6.8c8.8,0,13.9-3.5,16.6-6.5
	c5.5-6,5.4-13.7,5.3-15.6V89.6h27.9v54.1c0,0.2,0,0.4,0,0.6c0,0,0.1,3.5-1.8,5.6c-1.3,1.4-3.5,2.1-6.5,2.1c-3.8,0-6.8,3-6.8,6.8
	s3,6.8,6.8,6.8c8.8,0,13.9-3.5,16.6-6.5c5.5-6,5.4-13.7,5.3-15.6V89.6h20.4c2.9,8.7,11,14.9,20.6,14.9c12,0,21.7-9.7,21.7-21.7
	S216.5,61.1,204.5,61.1z M11.7,83.5L11.7,83.5C11.7,83.5,11.7,83.5,11.7,83.5L11.7,83.5z M72.1,90.9c-4.5,0-8.1-3.6-8.1-8.1
	c0-4.5,3.6-8.1,8.1-8.1c4.5,0,8.1,3.6,8.1,8.1C80.2,87.3,76.5,90.9,72.1,90.9z M210.5,90.6c-0.9,1.2-2.1,2-3.8,2.4
	c-0.1,0-0.2,0.1-0.2,0.3v1.6c0,0.5-0.2,0.9-0.5,1.2c-0.3,0.3-0.7,0.5-1.2,0.5h-0.1c-0.5,0-0.9-0.2-1.2-0.5c-0.3-0.3-0.5-0.7-0.5-1.2
	v-1.4c0-0.2-0.1-0.2-0.2-0.3c-1.6-0.2-3.1-0.7-4.5-1.6c-0.4-0.3-0.7-0.6-0.7-1.1c0-0.1,0-0.2,0-0.3c0-0.4,0.1-0.7,0.3-1l0.5-0.7
	c0.3-0.4,0.6-0.6,1.1-0.7c0.1,0,0.3-0.1,0.4-0.1c0.3,0,0.6,0.1,0.9,0.3c1.2,0.7,2.3,1,3.4,1c0.9,0,1.6-0.2,2-0.5
	c0.4-0.4,0.6-0.9,0.6-1.7c0-0.4-0.2-0.8-0.5-1.2c-0.3-0.4-0.8-0.7-1.3-1c-0.5-0.3-1.1-0.6-1.7-0.9c-0.6-0.3-1.3-0.7-1.9-1
	c-0.6-0.4-1.2-0.8-1.8-1.3c-0.5-0.5-1-1-1.3-1.7c-0.3-0.7-0.5-1.4-0.5-2.3c0-1.7,0.4-3.1,1.3-4.2c0.9-1.1,2.1-1.9,3.7-2.2
	c0.1,0,0.2-0.1,0.2-0.3V69c0-0.5,0.2-0.9,0.5-1.2c0.3-0.3,0.7-0.5,1.2-0.5h0.1c0.5,0,0.9,0.2,1.2,0.5c0.3,0.3,0.5,0.7,0.5,1.2v1.5
	c0,0.1,0.1,0.2,0.2,0.3c1.3,0.2,2.5,0.8,3.6,1.6c0.4,0.3,0.6,0.7,0.6,1.3c0,0.5-0.2,0.9-0.5,1.2l-0.4,0.4c-0.3,0.4-0.7,0.5-1.2,0.6
	c-0.1,0-0.1,0-0.2,0c-0.4,0-0.8-0.1-1.1-0.3c-0.7-0.4-1.5-0.6-2.3-0.6c-0.8,0-1.4,0.2-1.8,0.5c-0.4,0.3-0.6,0.8-0.6,1.6
	c0,0.4,0.1,0.7,0.4,1c0.3,0.3,0.6,0.6,1,0.8c0.4,0.2,0.9,0.5,1.5,0.8c0.5,0.3,1.1,0.5,1.7,0.8c0.6,0.3,1.1,0.6,1.6,1
	c0.5,0.4,1,0.8,1.5,1.2c0.4,0.4,0.8,1,1,1.6c0.3,0.6,0.4,1.4,0.4,2.1C211.8,88,211.4,89.4,210.5,90.6z"/>
</svg>
